<svg width="71" height="18" viewBox="0 0 71 18" fill="none" xmlns="http://www.w3.org/2000/svg">
<path d="M13.1254 2.7373C13.1254 1.08649 9.39603 2.68107 8.90317 2.97804C6.97983 4.13699 5.28473 5.98483 4.02355 7.81137C2.83014 9.53977 0.977576 12.6076 2.69948 14.6077C3.64394 15.7047 5.43663 15.8358 6.7643 15.8854C8.78503 15.961 10.8713 15.9934 12.8847 15.7929C16.8218 15.4006 21.334 14.2079 24.6069 11.904C26.0021 10.9218 27.047 9.14787 25.3476 7.90397C24.1647 7.0381 22.0372 6.05133 20.6254 6.941C18.8302 8.07223 17.6702 11.5117 18.8384 13.3669C20.239 15.5915 24.4157 15.3326 26.5513 14.6817C29.2141 13.8702 32.1704 12.232 33.0976 9.45027C33.167 9.2422 33.3014 8.597 33.255 8.81137C33.1019 9.51943 33.111 10.2576 33.1347 10.978C33.2214 13.6242 35.7497 13.6534 37.894 13.8114C41.2183 14.0563 44.493 13.3391 47.4957 11.8947C48.3567 11.4806 49.054 10.9748 49.5883 10.1817C49.7097 10.002 49.8633 9.75967 50.07 9.66323C50.497 9.46393 51.1297 9.57207 51.57 9.6447C52.9463 9.87187 54.2673 10.0655 55.6717 10.0429C60.1847 9.97007 64.6087 8.75883 69.1253 8.57063" stroke="#808080" stroke-width="2.5" stroke-linecap="round"/>
</svg>
